<mxfile host="app.diagrams.net" agent="Mozilla/5.0 (X11; Linux x86_64; rv:132.0) Gecko/20100101 Firefox/132.0" version="25.0.3">
  <diagram name="Page-1" id="7e0a89b8-554c-2b80-1dc8-d5c74ca68de4">
    <mxGraphModel dx="1271" dy="661" grid="1" gridSize="10" guides="1" tooltips="1" connect="1" arrows="1" fold="1" page="1" pageScale="1" pageWidth="1100" pageHeight="850" background="none" math="0" shadow="0">
      <root>
        <mxCell id="0" />
        <mxCell id="1" parent="0" />
        <mxCell id="1cb643a89b7d889d-5" value="10 k&lt;b&gt;Ω&lt;/b&gt;" style="verticalLabelPosition=bottom;shadow=0;dashed=0;align=center;html=1;verticalAlign=top;strokeWidth=1;shape=mxgraph.electrical.resistors.resistor_2;rounded=1;comic=0;labelBackgroundColor=none;fontFamily=Verdana;fontSize=12;" parent="1" vertex="1">
          <mxGeometry x="286" y="460" width="100" height="20" as="geometry" />
        </mxCell>
        <mxCell id="luScCy9Zl8X_JRAEI7n2-2" value="" style="edgeStyle=orthogonalEdgeStyle;rounded=0;orthogonalLoop=1;jettySize=auto;html=1;endArrow=none;endFill=0;" edge="1" parent="1" source="luScCy9Zl8X_JRAEI7n2-1" target="1cb643a89b7d889d-5">
          <mxGeometry relative="1" as="geometry" />
        </mxCell>
        <mxCell id="luScCy9Zl8X_JRAEI7n2-22" style="edgeStyle=orthogonalEdgeStyle;shape=connector;rounded=0;orthogonalLoop=1;jettySize=auto;html=1;exitX=1;exitY=1;exitDx=0;exitDy=0;exitPerimeter=0;strokeColor=default;align=center;verticalAlign=middle;fontFamily=Helvetica;fontSize=11;fontColor=default;labelBackgroundColor=default;endArrow=none;endFill=0;" edge="1" parent="1" source="luScCy9Zl8X_JRAEI7n2-1" target="luScCy9Zl8X_JRAEI7n2-21">
          <mxGeometry relative="1" as="geometry" />
        </mxCell>
        <mxCell id="luScCy9Zl8X_JRAEI7n2-1" value="" style="verticalLabelPosition=bottom;shadow=0;dashed=0;align=center;html=1;verticalAlign=top;shape=mxgraph.electrical.transistors.npn_transistor_5;" vertex="1" parent="1">
          <mxGeometry x="396" y="420" width="64" height="100" as="geometry" />
        </mxCell>
        <mxCell id="luScCy9Zl8X_JRAEI7n2-4" value="" style="edgeStyle=orthogonalEdgeStyle;shape=connector;rounded=0;orthogonalLoop=1;jettySize=auto;html=1;strokeColor=default;align=center;verticalAlign=middle;fontFamily=Helvetica;fontSize=11;fontColor=default;labelBackgroundColor=default;endArrow=none;endFill=0;" edge="1" parent="1" source="luScCy9Zl8X_JRAEI7n2-10" target="1cb643a89b7d889d-5">
          <mxGeometry relative="1" as="geometry" />
        </mxCell>
        <mxCell id="luScCy9Zl8X_JRAEI7n2-3" value="GPIO21" style="rounded=1;whiteSpace=wrap;html=1;fontFamily=Helvetica;fontSize=11;fontColor=default;labelBackgroundColor=default;" vertex="1" parent="1">
          <mxGeometry x="134" y="450" width="80" height="40" as="geometry" />
        </mxCell>
        <mxCell id="luScCy9Zl8X_JRAEI7n2-11" value="" style="edgeStyle=orthogonalEdgeStyle;shape=connector;rounded=0;orthogonalLoop=1;jettySize=auto;html=1;strokeColor=default;align=center;verticalAlign=middle;fontFamily=Helvetica;fontSize=11;fontColor=default;labelBackgroundColor=default;endArrow=none;endFill=0;" edge="1" parent="1" source="luScCy9Zl8X_JRAEI7n2-7" target="luScCy9Zl8X_JRAEI7n2-10">
          <mxGeometry relative="1" as="geometry" />
        </mxCell>
        <mxCell id="luScCy9Zl8X_JRAEI7n2-7" value="10 k&lt;b&gt;Ω&lt;/b&gt;" style="verticalLabelPosition=bottom;shadow=0;dashed=0;align=center;html=1;verticalAlign=top;strokeWidth=1;shape=mxgraph.electrical.resistors.resistor_2;rounded=1;comic=0;labelBackgroundColor=none;fontFamily=Verdana;fontSize=12;rotation=-90;" vertex="1" parent="1">
          <mxGeometry x="206" y="370" width="100" height="20" as="geometry" />
        </mxCell>
        <mxCell id="luScCy9Zl8X_JRAEI7n2-9" value="" style="edgeStyle=orthogonalEdgeStyle;shape=connector;rounded=0;orthogonalLoop=1;jettySize=auto;html=1;strokeColor=default;align=center;verticalAlign=middle;fontFamily=Helvetica;fontSize=11;fontColor=default;labelBackgroundColor=default;endArrow=none;endFill=0;" edge="1" parent="1" source="luScCy9Zl8X_JRAEI7n2-3" target="luScCy9Zl8X_JRAEI7n2-10">
          <mxGeometry relative="1" as="geometry">
            <mxPoint x="216" y="470" as="sourcePoint" />
            <mxPoint x="286" y="470" as="targetPoint" />
          </mxGeometry>
        </mxCell>
        <mxCell id="luScCy9Zl8X_JRAEI7n2-10" value="" style="shape=waypoint;sketch=0;fillStyle=solid;size=6;pointerEvents=1;points=[];fillColor=none;resizable=0;rotatable=0;perimeter=centerPerimeter;snapToPoint=1;fontFamily=Helvetica;fontSize=11;fontColor=default;labelBackgroundColor=default;" vertex="1" parent="1">
          <mxGeometry x="246" y="460" width="20" height="20" as="geometry" />
        </mxCell>
        <mxCell id="luScCy9Zl8X_JRAEI7n2-12" value="5V" style="rounded=1;whiteSpace=wrap;html=1;fontFamily=Helvetica;fontSize=11;fontColor=default;labelBackgroundColor=default;" vertex="1" parent="1">
          <mxGeometry x="134" y="100" width="80" height="40" as="geometry" />
        </mxCell>
        <mxCell id="luScCy9Zl8X_JRAEI7n2-13" style="edgeStyle=orthogonalEdgeStyle;shape=connector;rounded=0;orthogonalLoop=1;jettySize=auto;html=1;entryX=1;entryY=0.5;entryDx=0;entryDy=0;entryPerimeter=0;strokeColor=default;align=center;verticalAlign=middle;fontFamily=Helvetica;fontSize=11;fontColor=default;labelBackgroundColor=default;endArrow=none;endFill=0;" edge="1" parent="1" source="luScCy9Zl8X_JRAEI7n2-12" target="luScCy9Zl8X_JRAEI7n2-7">
          <mxGeometry relative="1" as="geometry" />
        </mxCell>
        <mxCell id="luScCy9Zl8X_JRAEI7n2-15" value="220 &lt;b&gt;Ω&lt;/b&gt;" style="verticalLabelPosition=bottom;shadow=0;dashed=0;align=center;html=1;verticalAlign=top;strokeWidth=1;shape=mxgraph.electrical.resistors.resistor_2;rounded=1;comic=0;labelBackgroundColor=none;fontFamily=Verdana;fontSize=12;rotation=-90;" vertex="1" parent="1">
          <mxGeometry x="410" y="180" width="100" height="20" as="geometry" />
        </mxCell>
        <mxCell id="luScCy9Zl8X_JRAEI7n2-16" style="edgeStyle=orthogonalEdgeStyle;shape=connector;rounded=0;orthogonalLoop=1;jettySize=auto;html=1;entryX=1;entryY=0.5;entryDx=0;entryDy=0;entryPerimeter=0;strokeColor=default;align=center;verticalAlign=middle;fontFamily=Helvetica;fontSize=11;fontColor=default;labelBackgroundColor=default;endArrow=none;endFill=0;" edge="1" parent="1" source="luScCy9Zl8X_JRAEI7n2-12" target="luScCy9Zl8X_JRAEI7n2-15">
          <mxGeometry relative="1" as="geometry" />
        </mxCell>
        <mxCell id="luScCy9Zl8X_JRAEI7n2-20" style="edgeStyle=orthogonalEdgeStyle;shape=connector;rounded=0;orthogonalLoop=1;jettySize=auto;html=1;exitDx=0;exitDy=0;exitPerimeter=0;entryX=1;entryY=0;entryDx=0;entryDy=0;entryPerimeter=0;strokeColor=default;align=center;verticalAlign=middle;fontFamily=Helvetica;fontSize=11;fontColor=default;labelBackgroundColor=default;endArrow=none;endFill=0;" edge="1" parent="1" source="luScCy9Zl8X_JRAEI7n2-24" target="luScCy9Zl8X_JRAEI7n2-1">
          <mxGeometry relative="1" as="geometry" />
        </mxCell>
        <mxCell id="luScCy9Zl8X_JRAEI7n2-21" value="" style="pointerEvents=1;verticalLabelPosition=bottom;shadow=0;dashed=0;align=center;html=1;verticalAlign=top;shape=mxgraph.electrical.signal_sources.signal_ground;fontFamily=Helvetica;fontSize=11;fontColor=default;labelBackgroundColor=default;" vertex="1" parent="1">
          <mxGeometry x="438" y="620" width="45" height="30" as="geometry" />
        </mxCell>
        <mxCell id="luScCy9Zl8X_JRAEI7n2-23" value="" style="edgeStyle=orthogonalEdgeStyle;shape=connector;rounded=0;orthogonalLoop=1;jettySize=auto;html=1;exitX=1;exitY=0.54;exitDx=0;exitDy=0;exitPerimeter=0;entryDx=0;entryDy=0;entryPerimeter=0;strokeColor=default;align=center;verticalAlign=middle;fontFamily=Helvetica;fontSize=11;fontColor=default;labelBackgroundColor=default;endArrow=none;endFill=0;" edge="1" parent="1" source="luScCy9Zl8X_JRAEI7n2-31" target="luScCy9Zl8X_JRAEI7n2-24">
          <mxGeometry relative="1" as="geometry">
            <mxPoint x="459.9999999999998" y="320" as="sourcePoint" />
            <mxPoint x="461" y="420" as="targetPoint" />
          </mxGeometry>
        </mxCell>
        <mxCell id="luScCy9Zl8X_JRAEI7n2-24" value="" style="shape=waypoint;sketch=0;fillStyle=solid;size=6;pointerEvents=1;points=[];fillColor=none;resizable=0;rotatable=0;perimeter=centerPerimeter;snapToPoint=1;fontFamily=Helvetica;fontSize=11;fontColor=default;labelBackgroundColor=default;" vertex="1" parent="1">
          <mxGeometry x="450" y="370" width="20" height="20" as="geometry" />
        </mxCell>
        <mxCell id="luScCy9Zl8X_JRAEI7n2-28" style="edgeStyle=orthogonalEdgeStyle;shape=connector;rounded=0;orthogonalLoop=1;jettySize=auto;html=1;exitX=0;exitY=0.8;exitDx=0;exitDy=0;strokeColor=default;align=center;verticalAlign=middle;fontFamily=Helvetica;fontSize=11;fontColor=default;labelBackgroundColor=default;endArrow=none;endFill=0;" edge="1" parent="1" source="luScCy9Zl8X_JRAEI7n2-25" target="luScCy9Zl8X_JRAEI7n2-24">
          <mxGeometry relative="1" as="geometry" />
        </mxCell>
        <mxCell id="luScCy9Zl8X_JRAEI7n2-30" style="edgeStyle=orthogonalEdgeStyle;shape=connector;rounded=0;orthogonalLoop=1;jettySize=auto;html=1;exitX=1;exitY=0.8;exitDx=0;exitDy=0;strokeColor=default;align=center;verticalAlign=middle;fontFamily=Helvetica;fontSize=11;fontColor=default;labelBackgroundColor=default;endArrow=none;endFill=0;" edge="1" parent="1" source="luScCy9Zl8X_JRAEI7n2-25" target="luScCy9Zl8X_JRAEI7n2-29">
          <mxGeometry relative="1" as="geometry" />
        </mxCell>
        <mxCell id="luScCy9Zl8X_JRAEI7n2-25" value="" style="html=1;shape=mxgraph.electrical.electro-mechanical.pushbutton;aspect=fixed;elSwitchState=off;fontFamily=Helvetica;fontSize=11;fontColor=default;labelBackgroundColor=default;" vertex="1" parent="1">
          <mxGeometry x="513" y="364" width="75" height="20" as="geometry" />
        </mxCell>
        <mxCell id="luScCy9Zl8X_JRAEI7n2-29" value="RUN" style="rounded=1;whiteSpace=wrap;html=1;fontFamily=Helvetica;fontSize=11;fontColor=default;labelBackgroundColor=default;" vertex="1" parent="1">
          <mxGeometry x="610" y="360" width="80" height="40" as="geometry" />
        </mxCell>
        <mxCell id="luScCy9Zl8X_JRAEI7n2-31" value="" style="verticalLabelPosition=bottom;shadow=0;dashed=0;align=center;html=1;verticalAlign=top;shape=mxgraph.electrical.opto_electronics.led_1;pointerEvents=1;fontFamily=Helvetica;fontSize=11;fontColor=default;labelBackgroundColor=default;rotation=90;" vertex="1" parent="1">
          <mxGeometry x="411.5" y="270" width="100" height="65" as="geometry" />
        </mxCell>
        <mxCell id="luScCy9Zl8X_JRAEI7n2-32" style="edgeStyle=orthogonalEdgeStyle;shape=connector;rounded=0;orthogonalLoop=1;jettySize=auto;html=1;exitX=0;exitY=0.54;exitDx=0;exitDy=0;exitPerimeter=0;entryX=0;entryY=0.5;entryDx=0;entryDy=0;entryPerimeter=0;strokeColor=default;align=center;verticalAlign=middle;fontFamily=Helvetica;fontSize=11;fontColor=default;labelBackgroundColor=default;endArrow=none;endFill=0;" edge="1" parent="1" source="luScCy9Zl8X_JRAEI7n2-31" target="luScCy9Zl8X_JRAEI7n2-15">
          <mxGeometry relative="1" as="geometry" />
        </mxCell>
      </root>
    </mxGraphModel>
  </diagram>
</mxfile>
